<svg width="48" height="48" viewBox="0 0 48 48" fill="none" xmlns="http://www.w3.org/2000/svg">
<g clip-path="url(#clip0_9578_29813)">
<path d="M39.791 16.1601C39.1135 12.1354 37.0122 8.48819 33.8701 5.88347C30.7281 3.27875 26.7545 1.88997 22.674 1.97034C18.5935 2.05071 14.6777 3.59487 11.6407 6.3213C8.60362 9.04772 6.64753 12.7748 6.12903 16.8231C4.00023 17.7125 2.24561 19.3124 1.16403 21.3503C0.0824602 23.3882 -0.259171 25.7381 0.197332 27.9996C0.653834 30.2611 1.88024 32.2945 3.66764 33.7532C5.45505 35.212 7.6929 36.0061 10 36.0001H22V29.0001H17C16.808 29.0001 16.62 28.9447 16.4585 28.8407C16.2971 28.7367 16.169 28.5884 16.0896 28.4136C16.0101 28.2387 15.9828 28.0447 16.0107 27.8547C16.0386 27.6646 16.1207 27.4867 16.247 27.3421L23.247 19.3421C23.3434 19.2388 23.46 19.1565 23.5895 19.1002C23.7191 19.0439 23.8588 19.0148 24 19.0148C24.1413 19.0148 24.281 19.0439 24.4105 19.1002C24.5401 19.1565 24.6567 19.2388 24.753 19.3421L31.753 27.3421C31.8794 27.4867 31.9615 27.6646 31.9894 27.8547C32.0173 28.0447 31.9899 28.2387 31.9105 28.4136C31.8311 28.5884 31.703 28.7367 31.5415 28.8407C31.3801 28.9447 31.1921 29.0001 31 29.0001H26V36.0001H38C40.4982 36.0024 42.9067 35.0696 44.7516 33.3853C46.5966 31.701 47.7443 29.3871 47.9689 26.8991C48.1935 24.4111 47.4787 21.9291 45.9652 19.9417C44.4518 17.9542 42.2492 16.6051 39.791 16.1601Z" fill="#CCCCCC"/>
<path d="M22 36V44C22 44.5304 22.2107 45.0391 22.5858 45.4142C22.9609 45.7893 23.4696 46 24 46C24.5304 46 25.0391 45.7893 25.4142 45.4142C25.7893 45.0391 26 44.5304 26 44V36H22Z" fill="#CCCCCC"/>
</g>
<defs>
<clipPath id="clip0_9578_29813">
<rect width="48" height="48" fill="white"/>
</clipPath>
</defs>
</svg>
